/vscmnt/brussel_pixiu_data/_data_brussel/112/vsc11236/PredSimResults/SUBJ04_Dhondt2024_3seg/weighted-LRposFixed/worker_02.mot
version=1
nRows=4
nColumns=124
inDegrees=yes
endheader
                time	         pelvis_tilt	         pelvis_list	     pelvis_rotation	           pelvis_tx	           pelvis_ty	           pelvis_tz	       hip_flexion_r	     hip_adduction_r	      hip_rotation_r	        knee_angle_r	       ankle_angle_r	    subtalar_angle_r	         mtp_angle_r	       hip_flexion_l	     hip_adduction_l	      hip_rotation_l	        knee_angle_l	       ankle_angle_l	    subtalar_angle_l	         mtp_angle_l	    lumbar_extension	      lumbar_bending	     lumbar_rotation	          arm_flex_r	           arm_add_r	           arm_rot_r	        elbow_flex_r	          arm_flex_l	           arm_add_l	           arm_rot_l	        elbow_flex_l	glut_med1_r/activation	glut_med2_r/activation	glut_med3_r/activation	glut_min1_r/activation	glut_min2_r/activation	glut_min3_r/activation	semimem_r/activation	semiten_r/activation	bifemlh_r/activation	bifemsh_r/activation	    sar_r/activation	add_long_r/activation	add_brev_r/activation	add_mag1_r/activation	add_mag2_r/activation	add_mag3_r/activation	    tfl_r/activation	   pect_r/activation	   grac_r/activation	glut_max1_r/activation	glut_max2_r/activation	glut_max3_r/activation	iliacus_r/activation	  psoas_r/activation	quad_fem_r/activation	    gem_r/activation	   peri_r/activation	rect_fem_r/activation	vas_med_r/activation	vas_int_r/activation	vas_lat_r/activation	med_gas_r/activation	lat_gas_r/activation	 soleus_r/activation	tib_post_r/activation	flex_dig_r/activation	flex_hal_r/activation	tib_ant_r/activation	per_brev_r/activation	per_long_r/activation	per_tert_r/activation	ext_dig_r/activation	ext_hal_r/activation	glut_med1_l/activation	glut_med2_l/activation	glut_med3_l/activation	glut_min1_l/activation	glut_min2_l/activation	glut_min3_l/activation	semimem_l/activation	semiten_l/activation	bifemlh_l/activation	bifemsh_l/activation	    sar_l/activation	add_long_l/activation	add_brev_l/activation	add_mag1_l/activation	add_mag2_l/activation	add_mag3_l/activation	    tfl_l/activation	   pect_l/activation	   grac_l/activation	glut_max1_l/activation	glut_max2_l/activation	glut_max3_l/activation	iliacus_l/activation	  psoas_l/activation	quad_fem_l/activation	    gem_l/activation	   peri_l/activation	rect_fem_l/activation	vas_med_l/activation	vas_int_l/activation	vas_lat_l/activation	med_gas_l/activation	lat_gas_l/activation	 soleus_l/activation	tib_post_l/activation	flex_dig_l/activation	flex_hal_l/activation	tib_ant_l/activation	per_brev_l/activation	per_long_l/activation	per_tert_l/activation	ext_dig_l/activation	ext_hal_l/activation	 ercspn_r/activation	 ercspn_l/activation	 intobl_r/activation	 intobl_l/activation	 extobl_r/activation	 extobl_l/activation	
          0.00000000	         -2.92551800	         -0.37126818	          1.27867291	          0.00000000	          0.87432314	         -0.00177155	         25.87161149	          3.55677980	          7.69675652	         -6.72838072	          2.98623380	         -4.47970917	          0.19942889	        -13.32732494	          3.74742626	         13.55692190	         -6.44335684	          9.20810186	         -0.71988671	         12.63169354	         -3.92407767	         -0.73913345	         -1.13691947	         -2.10330554	        -13.45492915	         16.78716932	         21.19746472	          2.38074786	        -13.53445991	         19.37581339	         38.26113866	          0.03346128	          0.01003044	          0.01000007	          0.01489339	          0.01489302	          0.01000030	          0.01220389	          0.04580259	          0.05485164	          0.01000005	          0.01000006	          0.11727384	          0.18353086	          0.12680974	          0.14178607	          0.08181207	          0.01000015	          0.02314219	          0.04392952	          0.01000161	          0.01489286	          0.03564473	          0.01651603	          0.01467676	          0.01220518	          0.01000020	          0.01000004	          0.01000004	          0.07624476	          0.07923117	          0.06502266	          0.01000001	          0.01000002	          0.01000002	          0.01000012	          0.01000027	          0.01000037	          0.20483008	          0.15439601	          0.10077613	          0.14421880	          0.31829462	          0.03301503	          0.41694108	          0.21284494	          0.10579598	          0.35231194	          0.34890289	          0.24257440	          0.01182625	          0.01000048	          0.01000035	          0.04829264	          0.12122521	          0.01000002	          0.01000004	          0.01000013	          0.01000049	          0.01000025	          0.34650365	          0.01000017	          0.01000020	          0.03303672	          0.02275008	          0.01000040	          0.23973184	          0.34290096	          0.01000011	          0.01463906	          0.10265410	          0.13513872	          0.01000008	          0.01000010	          0.01000008	          0.39143717	          0.42604746	          0.36764546	          0.20978685	          0.24722311	          0.30639905	          0.01283818	          0.08647417	          0.18422029	          0.01489335	          0.01489337	          0.01439164	          0.01489335	          0.00999999	          0.04992832	          0.01000000	          0.07502807	          0.01000001	
          0.01322297	         -2.92984115	         -0.60406649	          1.39874214	          0.01385712	          0.87393893	         -0.00158741	         24.87572269	          3.98882092	          7.91703535	         -5.66272884	          1.94886678	         -4.89379878	          0.21417414	        -13.51314654	          3.56912793	         13.17943396	         -7.77638793	          8.87749404	         -0.32506463	         13.72843671	         -3.79498234	         -0.28680005	         -1.21353409	         -2.78775661	        -13.46354040	         16.47520444	         19.84901616	          1.94742455	        -13.55753727	         19.38670098	         40.50959489	          0.02741868	          0.01000073	          0.01000007	          0.01220391	          0.01220378	          0.01000032	          0.01000006	          0.03753136	          0.04494627	          0.01000001	          0.01000006	          0.09609605	          0.18003440	          0.15501704	          0.13064653	          0.06703812	          0.01000008	          0.02720519	          0.03599660	          0.01000053	          0.01220367	          0.05351787	          0.01353349	          0.01202636	          0.08736281	          0.01000022	          0.01000017	          0.01489335	          0.06706615	          0.06495006	          0.05650345	          0.01000000	          0.01000000	          0.00999999	          0.01000001	          0.01000011	          0.01000008	          0.20697559	          0.14559172	          0.09437763	          0.16474812	          0.34080205	          0.03944367	          0.44010624	          0.17440836	          0.08669082	          0.30029355	          0.32074206	          0.19876916	          0.01000049	          0.01000011	          0.01000010	          0.03957172	          0.10466845	          0.01000008	          0.01000009	          0.01000025	          0.01000081	          0.01000026	          0.33700912	          0.01000053	          0.01000067	          0.02707098	          0.01864215	          0.01000079	          0.21633769	          0.28252809	          0.01602116	          0.01818858	          0.08411632	          0.14603072	          0.01000025	          0.01000030	          0.01000024	          0.36037590	          0.39404923	          0.35365384	          0.20707477	          0.25073662	          0.30593472	          0.01051980	          0.07085824	          0.17546325	          0.01220384	          0.01220385	          0.01179273	          0.01220384	          0.01000002	          0.04091201	          0.01489333	          0.06147912	          0.01000004	
          0.02644595	         -2.92979179	         -0.84995515	          1.51091427	          0.02806336	          0.87363158	         -0.00140649	         23.85434874	          4.38540874	          8.16041544	         -5.17540451	          0.60298152	         -5.29658840	          0.22489676	        -13.64501882	          3.37482681	         12.78488649	         -9.22452768	          8.39699602	          0.10343466	         14.90234935	         -3.64625052	          0.18679623	         -1.28320623	         -3.49669007	        -13.48172119	         16.33900251	         18.50067128	          1.43582194	        -13.57573647	         19.38201328	         42.75528252	          0.02246728	          0.01000000	          0.01000004	          0.01000008	          0.01000003	          0.01000002	          0.03627308	          0.05412581	          0.03682967	          0.02706951	          0.01489188	          0.07874258	          0.14752296	          0.12702339	          0.10705379	          0.05493206	          0.01000007	          0.02229318	          0.09252516	          0.01000003	          0.01000004	          0.04385336	          0.01489393	          0.01506558	          0.10319058	          0.01818896	          0.01000011	          0.01220384	          0.05495501	          0.05322107	          0.04629978	          0.01514434	          0.01780390	          0.01220386	          0.01489330	          0.01220499	          0.01489301	          0.16959891	          0.12529178	          0.09938959	          0.13499710	          0.36031706	          0.03232076	          0.39990651	          0.14291283	          0.07103576	          0.28204660	          0.26282094	          0.16287445	          0.01000161	          0.01000016	          0.01000010	          0.03242567	          0.08576701	          0.01000011	          0.01000008	          0.01000021	          0.01000065	          0.01000021	          0.27615066	          0.01000077	          0.01000053	          0.02218245	          0.01527581	          0.01000023	          0.20194837	          0.24207987	          0.01312803	          0.01490418	          0.06892618	          0.17302542	          0.01000006	          0.01000007	          0.01000006	          0.32659420	          0.35713726	          0.33355187	          0.19600479	          0.24676042	          0.29725990	          0.01000000	          0.05806232	          0.17699918	          0.01000004	          0.01000002	          0.01000002	          0.01000001	          0.01000012	          0.03352392	          0.01220382	          0.05037692	          0.01489332	
          0.03966892	         -2.92648150	         -1.11448494	          1.61029170	          0.04253036	          0.87342044	         -0.00123298	         22.80236727	          4.72795923	          8.42534140	         -4.80623554	         -0.96707057	         -5.69124119	          0.22469508	        -13.70717973	          3.15889486	         12.37865592	        -10.79794510	          7.75670864	          0.57050939	         16.13219892	         -3.48434801	          0.68732467	         -1.34346967	         -4.20570712	        -13.50861607	         16.41158319	         17.13356331	          0.85627136	        -13.58559474	         19.35596795	         44.99295845	          0.17564858	          0.16651474	          0.16453429	          0.04527334	          0.01000042	          0.12934287	          0.02972274	          0.04435167	          0.03017884	          0.02218117	          0.01220294	          0.06452286	          0.12088253	          0.10408490	          0.08772152	          0.04501218	          0.01000022	          0.01826744	          0.07581653	          0.01000014	          0.01000008	          0.03593412	          0.01220432	          0.01234497	          0.08455593	          0.01490440	          0.07132449	          0.01000004	          0.04503099	          0.04361017	          0.03793876	          0.01240950	          0.01458879	          0.01000003	          0.01220380	          0.01000098	          0.01220359	          0.29519602	          0.18334867	          0.09912494	          0.33387692	          0.44061464	          0.02648415	          0.40557706	          0.11710492	          0.05820776	          0.37801407	          0.21535948	          0.13346177	          0.01000047	          0.01000005	          0.01000006	          0.02657009	          0.07027881	          0.01000002	          0.01000002	          0.01000008	          0.01000030	          0.01000011	          0.22628206	          0.01000015	          0.01000015	          0.01817671	          0.01251838	          0.01000036	          0.16638717	          0.23265676	          0.01220366	          0.01221289	          0.05647914	          0.14621212	          0.01000012	          0.01000013	          0.01000009	          0.28326157	          0.31433659	          0.30914306	          0.17909503	          0.20847143	          0.26557484	          0.01000000	          0.04757717	          0.18497753	          0.01000003	          0.01000000	          0.01000005	          0.01583286	          0.01280400	          0.02765195	          0.01000000	          0.04127960	          0.01220381	
